<svg width="100" height="100" viewBox="0 0 100 100" xmlns="http://www.w3.org/2000/svg">
  <defs>
    <linearGradient id="lotus-gradient" x1="0%" y1="0%" x2="100%" y2="100%">
      <stop offset="0%" stop-color="#FF9933"/>
      <stop offset="100%" stop-color="#CC6633"/>
    </linearGradient>
  </defs>
  <g fill="url(#lotus-gradient)">
    <path d="M50,20 C60,30 75,25 85,15 C80,35 65,45 50,45 C35,45 20,35 15,15 C25,25 40,30 50,20 Z"/>
    <path d="M50,25 C57,35 70,35 80,30 C70,45 60,50 50,50 C40,50 30,45 20,30 C30,35 43,35 50,25 Z"/>
    <path d="M50,30 C55,40 65,42 75,40 C65,50 55,55 50,55 C45,55 35,50 25,40 C35,42 45,40 50,30 Z"/>
    <circle cx="50" cy="60" r="5"/>
    <rect x="48" y="65" width="4" height="20" rx="2"/>
  </g>
</svg>